<?xml version="1.0" standalone="no"?>
<!DOCTYPE svg PUBLIC "-//W3C//DTD SVG 20010904//EN"
 "http://www.w3.org/TR/2001/REC-SVG-20010904/DTD/svg10.dtd">
<svg version="1.0" xmlns="http://www.w3.org/2000/svg"
 width="225.000000pt" height="225.000000pt" viewBox="0 0 225.000000 225.000000"
 preserveAspectRatio="xMidYMid meet">
<metadata>
Created by potrace 1.11, written by Peter Selinger 2001-2013
</metadata>
<g transform="translate(0.000000,225.000000) scale(0.100000,-0.100000)"
fill="#000000" stroke="none">
<path d="M1637 1746 l-78 -11 78 -77 c53 -53 86 -78 102 -78 23 0 23 1 17 73
-8 88 -14 107 -29 106 -7 -1 -47 -7 -90 -13z"/>
<path d="M1346 1713 l-39 -4 79 -80 c73 -74 81 -79 120 -79 80 0 80 5 2 91
-76 84 -70 81 -162 72z"/>
<path d="M1103 1683 c-18 -2 -33 -7 -33 -11 0 -4 33 -40 73 -80 66 -66 76 -72
112 -71 80 1 80 7 3 92 -73 81 -72 80 -155 70z"/>
<path d="M853 1653 c-18 -2 -33 -7 -33 -11 0 -4 34 -41 75 -82 80 -79 83 -80
169 -64 l28 6 -78 79 c-82 82 -81 82 -161 72z"/>
<path d="M603 1623 c-18 -2 -33 -7 -33 -11 0 -4 34 -41 75 -82 l76 -76 49 6
c27 4 53 10 57 13 4 4 -26 41 -67 82 -77 78 -77 78 -157 68z"/>
<path d="M467 1603 c-4 -3 -7 -248 -7 -544 0 -475 2 -539 16 -553 14 -14 86
-16 643 -16 474 0 630 3 639 12 9 9 12 125 12 460 l0 448 -29 0 c-24 0 -39
-13 -97 -90 l-68 -90 -63 0 c-73 0 -73 -6 1 90 27 36 54 71 59 78 7 9 -4 12
-51 12 l-60 0 -69 -90 -68 -90 -63 0 c-73 0 -73 -8 10 103 l59 77 -60 0 -59 0
-67 -90 -67 -90 -65 0 c-73 0 -73 -6 1 90 27 36 54 71 59 78 7 9 -4 12 -51 12
l-61 0 -48 -62 c-26 -34 -51 -66 -55 -72 -5 -7 -21 3 -44 26 l-37 36 22 30
c11 17 21 33 21 36 0 3 -24 6 -54 6 l-54 0 -95 100 c-70 75 -100 100 -119 100
-13 0 -28 -3 -31 -7z m79 -84 c8 -14 -21 -43 -35 -35 -19 12 -13 46 8 46 11 0
23 -5 27 -11z m-2 -198 c10 -16 -6 -42 -23 -39 -9 2 -17 13 -19 26 -3 16 2 22
17 22 11 0 22 -4 25 -9z m204 -14 c4 -20 -25 -34 -40 -19 -15 15 -1 44 19 40
10 -2 19 -11 21 -21z m444 -199 c57 -17 133 -88 155 -146 26 -68 22 -150 -10
-211 l-25 -50 25 -25 c29 -29 71 -40 119 -32 26 5 34 3 34 -7 0 -17 -30 -27
-80 -27 -35 0 -98 31 -113 56 -6 10 -15 8 -43 -11 -74 -51 -169 -59 -249 -21
-154 71 -200 267 -93 396 22 27 86 71 115 80 42 12 120 12 165 -2z"/>
<path d="M1063 1043 c-19 -7 -16 -48 5 -66 10 -10 30 -17 45 -17 43 0 78 70
41 84 -18 7 -73 7 -91 -1z"/>
<path d="M950 954 c-8 -8 -14 -34 -14 -57 -1 -37 2 -42 22 -45 54 -8 85 71 40
102 -28 20 -32 20 -48 0z"/>
<path d="M1217 952 c-37 -41 -9 -106 42 -100 32 4 40 42 16 87 -18 35 -35 39
-58 13z"/>
<path d="M972 788 c-7 -7 -12 -18 -12 -24 0 -19 66 -66 87 -62 24 4 30 60 8
82 -19 19 -66 21 -83 4z"/>
<path d="M1157 782 c-21 -23 -22 -56 -1 -77 15 -15 18 -15 43 1 14 9 34 25 44
36 16 20 16 22 1 39 -22 24 -66 24 -87 1z"/>
</g>
</svg>
